<svg width="36" height="36" viewBox="0 0 36 36" fill="none" xmlns="http://www.w3.org/2000/svg">
<path d="M31.3425 17.91L35.82 22.3875L30.2231 24.6262L31.3425 31.3425L24.6262 30.2231L22.3875 35.82L17.91 31.3425L13.4325 35.82L11.1937 30.2231L4.4775 31.3425L5.59687 24.6262L0 22.3875L4.4775 17.91L0 13.4325L5.59687 11.1937L4.4775 4.4775L11.1937 5.59687L13.4325 0L17.91 4.4775L22.3875 0L24.6262 5.59687L31.3425 4.4775L30.2231 11.1937L35.82 13.4325L31.3425 17.91ZM12.3131 8.955C11.3803 8.955 10.5874 9.39226 9.93445 10.2668C9.28148 11.1413 8.955 12.1965 8.955 13.4325C8.955 14.6685 9.28148 15.7237 9.93445 16.5982C10.5874 17.4727 11.3803 17.91 12.3131 17.91C13.2459 17.91 14.0388 17.4727 14.6918 16.5982C15.3448 15.7237 15.6712 14.6685 15.6712 13.4325C15.6712 12.1965 15.3448 11.1413 14.6918 10.2668C14.0388 9.39226 13.2459 8.955 12.3131 8.955ZM23.5069 8.955H22.3875C22.2942 8.955 22.2068 8.97249 22.1251 9.00747C22.0435 9.04245 21.9794 9.0716 21.9328 9.09492C21.8861 9.11824 21.822 9.18237 21.7404 9.28731C21.6587 9.39226 21.6063 9.46222 21.5829 9.4972C21.5596 9.53218 21.5072 9.62546 21.4255 9.77704C21.3439 9.92862 21.2914 10.0277 21.2681 10.0744L11.3687 25.7456C11.2054 26.0255 11.2404 26.282 11.4736 26.5152C11.7068 26.7484 11.9866 26.865 12.3131 26.865H13.4325C13.5258 26.865 13.6016 26.8592 13.6599 26.8475C13.7182 26.8358 13.7823 26.8067 13.8523 26.7601C13.9222 26.7134 13.9747 26.6726 14.0097 26.6376C14.0447 26.6026 14.0913 26.5385 14.1496 26.4452C14.2079 26.352 14.2487 26.282 14.272 26.2354C14.2954 26.1887 14.342 26.1071 14.412 25.9905C14.4819 25.8739 14.5286 25.7923 14.5519 25.7456L24.4513 10.0744C24.6146 9.79453 24.5796 9.53801 24.3464 9.3048C24.1132 9.0716 23.8334 8.955 23.5069 8.955ZM23.5069 17.91C22.5741 17.91 21.7812 18.3473 21.1282 19.2218C20.4752 20.0963 20.1487 21.1515 20.1487 22.3875C20.1487 23.6235 20.4752 24.6787 21.1282 25.5532C21.7812 26.4277 22.5741 26.865 23.5069 26.865C24.4397 26.865 25.2326 26.4277 25.8855 25.5532C26.5385 24.6787 26.865 23.6235 26.865 22.3875C26.865 21.1515 26.5385 20.0963 25.8855 19.2218C25.2326 18.3473 24.4397 17.91 23.5069 17.91ZM23.5069 24.6262C23.2037 24.6262 22.9414 24.4047 22.7198 23.9616C22.4983 23.5185 22.3875 22.988 22.3875 22.37C22.3875 21.752 22.4983 21.2273 22.7198 20.7959C22.9414 20.3645 23.2037 20.1487 23.5069 20.1487C23.81 20.1487 24.0724 20.3645 24.2939 20.7959C24.5155 21.2273 24.6262 21.752 24.6262 22.37C24.6262 22.988 24.5155 23.5185 24.2939 23.9616C24.0724 24.4047 23.81 24.6262 23.5069 24.6262ZM12.3131 15.6712C12.01 15.6712 11.7476 15.4497 11.5261 15.0066C11.3045 14.5635 11.1937 14.033 11.1937 13.415C11.1937 12.797 11.3045 12.2723 11.5261 11.8409C11.7476 11.4095 12.01 11.1937 12.3131 11.1937C12.6163 11.1937 12.8786 11.4095 13.1002 11.8409C13.3217 12.2723 13.4325 12.797 13.4325 13.415C13.4325 14.033 13.3217 14.5635 13.1002 15.0066C12.8786 15.4497 12.6163 15.6712 12.3131 15.6712Z" fill="white"/>
</svg>
