<svg width="37" height="36" viewBox="0 0 37 36" fill="none" xmlns="http://www.w3.org/2000/svg">
<path d="M15.6116 0H21.2084C22.1389 0 22.8875 0.748582 22.8875 1.67906V13.4325H29.0231C30.2684 13.4325 30.891 14.9367 30.0095 15.8182L19.3685 26.4662C18.8438 26.9909 17.9832 26.9909 17.4585 26.4662L6.80348 15.8182C5.92197 14.9367 6.54462 13.4325 7.78993 13.4325H13.9325V1.67906C13.9325 0.748582 14.6811 0 15.6116 0V0ZM36.32 26.3053V34.1409C36.32 35.0714 35.5714 35.82 34.6409 35.82H2.17906C1.24858 35.82 0.5 35.0714 0.5 34.1409V26.3053C0.5 25.3748 1.24858 24.6262 2.17906 24.6262H12.4423L15.8704 28.0543C17.2766 29.4606 19.5434 29.4606 20.9496 28.0543L24.3777 24.6262H34.6409C35.5714 24.6262 36.32 25.3748 36.32 26.3053V26.3053ZM27.6448 32.4619C27.6448 31.6923 27.0152 31.0627 26.2456 31.0627C25.4761 31.0627 24.8464 31.6923 24.8464 32.4619C24.8464 33.2314 25.4761 33.8611 26.2456 33.8611C27.0152 33.8611 27.6448 33.2314 27.6448 32.4619ZM32.1223 32.4619C32.1223 31.6923 31.4927 31.0627 30.7231 31.0627C29.9536 31.0627 29.3239 31.6923 29.3239 32.4619C29.3239 33.2314 29.9536 33.8611 30.7231 33.8611C31.4927 33.8611 32.1223 33.2314 32.1223 32.4619Z" fill="white"/>
</svg>
